<svg xmlns="http://www.w3.org/2000/svg" viewBox="0 0 180 210" role="img" aria-labelledby="title desc">
  <title id="title">Rennes School of Business Application</title>
  <desc id="desc">Compact transparent sidebar logo for the application.</desc>
  <g fill="none" fill-rule="evenodd">
    <path
      fill="#062b67"
      d="M8 66c16 5 34-2 56-21C82 30 105 17 131 8c11-4 19-4 22-1 3 3 2 9-3 18l27-8 4-11 5 11 13 7 4 10 8 6-3 13-12 4-9-2-18 5-13 9 27 7 37-7 31 7 2 8-4 5-26-7-45 9-30-9-15 10-48 12-20 19-19 25-22 5-18 21-18 10-8-3 10-13 8-21 14-11 4-25-31 23C38 61 21 73 9 73c-6 0-8-2-9-5 0-3 2-5 8-2Z"
      transform="translate(0 8) scale(.72)"
    />

    <g font-family="Arial Black, Arial, Helvetica, sans-serif" font-weight="900" text-anchor="middle">
      <text x="90" y="92" font-size="24" fill="#03a9f4" stroke="#062b67" stroke-width="2.5" paint-order="stroke">
        RENNES
      </text>
      <text x="90" y="118" font-size="24" fill="#03a9f4" stroke="#062b67" stroke-width="2.5" paint-order="stroke">
        SCHOOL
      </text>
      <text x="90" y="144" font-size="22" fill="#03a9f4" stroke="#062b67" stroke-width="2.5" paint-order="stroke">
        BUSINESS
      </text>
      <text x="90" y="188" font-size="26" fill="#df2d91">
        APPLICATION
      </text>
    </g>
  </g>
</svg>
