<svg xmlns="http://www.w3.org/2000/svg" viewBox="0 0 554 432" role="img" aria-labelledby="title desc">
  <title id="title">Rennes School of Business Application</title>
  <desc id="desc">Clean transparent application logo with a navy panther mark and Rennes School of Business text.</desc>
  <g fill="none" fill-rule="evenodd">
    <path
      fill="#062b67"
      d="M4 210c23 9 56-4 99-39l48-39 85-31-72-1-54 19-24-3 76-46c46-27 92-49 137-64 21-7 35-8 42-2 6 5 5 17-4 36l53-16 14-23 7 21 26 13 8 18 15 12-5 26-22 8-18-3-33 9-22 15 51 14 73-14 59 13 4 16-7 10-49-14-88 18-56-17-29 19-95 23-41 38-35 51-41 10-34 40-32 18-15-5 20-24 15-41 28-22 7-49-60 45C69 197 32 224 8 224c-10 0-14-3-15-9-1-5 1-9 7-5Z"
    />

    <g font-family="Arial Black, Arial, Helvetica, sans-serif" font-weight="900">
      <text x="230" y="220" font-size="48" fill="#03a9f4" stroke="#062b67" stroke-width="5" paint-order="stroke">
        RENNES
      </text>
      <text x="230" y="270" font-size="48" fill="#03a9f4" stroke="#062b67" stroke-width="5" paint-order="stroke">
        SCHOOL
      </text>
      <text x="230" y="320" font-size="48" fill="#03a9f4" stroke="#062b67" stroke-width="5" paint-order="stroke">
        OF BUSINESS
      </text>
      <text x="230" y="386" font-size="52" fill="#df2d91">
        APPLICATION
      </text>
    </g>
  </g>
</svg>
